<svg xmlns="http://www.w3.org/2000/svg" xmlns:xlink="http://www.w3.org/1999/xlink" width="474" zoomAndPan="magnify" viewBox="0 0 355.5 306.749995" height="409" preserveAspectRatio="xMidYMid meet" version="1.0"><defs><g/><clipPath id="5990197812"><path d="M 110.25 81 L 245 81 L 245 186 L 110.25 186 Z M 110.25 81 " clip-rule="nonzero"/></clipPath></defs><g clip-path="url(#5990197812)"><path fill="#5ce1e6" d="M 175.003906 170.347656 Z M 147.550781 185.84375 L 153.230469 166.378906 L 157.207031 161.085938 L 158.71875 161.84375 L 156.828125 168.078125 L 157.964844 168.648438 L 162.507812 163.734375 L 163.832031 164.488281 L 161.371094 171.292969 L 147.550781 185.65625 Z M 166.863281 174.128906 L 174.8125 170.347656 C 177.464844 171.859375 180.683594 172.804688 183.902344 172.804688 C 188.445312 172.804688 192.613281 171.105469 195.832031 168.457031 C 201.132812 172.992188 207.949219 175.828125 215.332031 175.828125 C 231.617188 175.828125 244.871094 162.597656 244.871094 146.34375 C 244.871094 130.28125 231.996094 117.238281 216.089844 116.863281 C 216.46875 114.78125 216.847656 112.703125 216.847656 110.625 C 216.847656 94.371094 203.59375 81.140625 187.3125 81.140625 C 173.300781 81.140625 161.558594 90.78125 158.53125 103.820312 C 155.3125 100.988281 150.957031 99.097656 146.222656 99.097656 C 136 99.097656 127.667969 107.414062 127.667969 117.617188 C 127.667969 118.5625 127.667969 119.320312 127.859375 120.265625 C 117.445312 123.289062 109.871094 132.738281 109.871094 144.078125 C 109.871094 157.683594 121.042969 168.835938 134.675781 168.835938 L 150.199219 168.835938 L 147.359375 185.84375 L 163.074219 172.617188 L 164.402344 168.835938 L 164.777344 168.835938 Z M 160.613281 140.296875 C 166.105469 127.445312 173.300781 116.105469 189.203125 112.894531 C 193.75 127.636719 189.015625 140.109375 179.359375 151.449219 C 180.683594 154.09375 181.820312 156.929688 181.441406 159.574219 C 180.875 163.164062 178.222656 164.867188 175.570312 167.136719 L 173.109375 169.214844 L 166.863281 174.316406 L 166.863281 161.84375 L 163.832031 163.734375 L 158.152344 160.332031 L 158.152344 156.550781 L 146.980469 163.164062 L 149.0625 149.9375 C 149.632812 146.34375 149.820312 144.457031 153.230469 142.375 C 155.691406 140.863281 158.339844 140.675781 160.992188 140.488281 Z M 160.613281 140.296875 " fill-opacity="1" fill-rule="evenodd"/></g><path fill="#d9d9d9" d="M 187.6875 116.105469 L 185.605469 119.507812 C 188.066406 127.824219 185.226562 137.460938 178.789062 148.046875 C 186.554688 138.40625 190.53125 128.203125 187.5 115.917969 Z M 187.6875 116.105469 " fill-opacity="1" fill-rule="evenodd"/><g fill="#5ce1e6" fill-opacity="1"><g transform="translate(84.181364, 227.108873)"><g><path d="M 8.4375 0.292969 C 10.421875 0.292969 12.117188 -0.261719 13.460938 -1.402344 C 14.804688 -2.511719 15.476562 -4.027344 15.476562 -5.957031 C 15.476562 -7.007812 15.269531 -7.914062 14.890625 -8.699219 C 14.511719 -9.488281 14.015625 -10.132812 13.402344 -10.597656 C 12.789062 -11.066406 12.117188 -11.476562 11.386719 -11.824219 C 10.628906 -12.175781 9.898438 -12.496094 9.167969 -12.789062 C 8.410156 -13.050781 7.738281 -13.34375 7.125 -13.636719 C 6.511719 -13.925781 6.015625 -14.308594 5.636719 -14.773438 C 5.253906 -15.242188 5.082031 -15.765625 5.082031 -16.410156 C 5.082031 -17.253906 5.371094 -17.898438 5.957031 -18.363281 C 6.539062 -18.832031 7.300781 -19.066406 8.203125 -19.066406 C 9.722656 -19.066406 11.007812 -18.421875 12 -17.140625 L 14.363281 -19.300781 C 13.664062 -20.175781 12.757812 -20.875 11.679688 -21.402344 C 10.597656 -21.925781 9.429688 -22.191406 8.203125 -22.191406 C 6.394531 -22.191406 4.847656 -21.636719 3.621094 -20.554688 C 2.363281 -19.445312 1.75 -17.984375 1.75 -16.144531 C 1.75 -15.152344 1.925781 -14.308594 2.304688 -13.578125 C 2.6875 -12.816406 3.183594 -12.234375 3.796875 -11.796875 C 4.410156 -11.359375 5.082031 -10.976562 5.839844 -10.628906 C 6.570312 -10.277344 7.300781 -9.984375 8.058594 -9.695312 C 8.789062 -9.402344 9.460938 -9.109375 10.074219 -8.816406 C 10.6875 -8.496094 11.183594 -8.085938 11.5625 -7.621094 C 11.941406 -7.125 12.144531 -6.570312 12.144531 -5.925781 C 12.144531 -4.992188 11.796875 -4.234375 11.125 -3.707031 C 10.421875 -3.183594 9.546875 -2.917969 8.46875 -2.917969 C 7.359375 -2.917969 6.363281 -3.183594 5.546875 -3.765625 C 4.730469 -4.320312 4.117188 -5.082031 3.707031 -6.074219 L 0.847656 -4.320312 C 1.488281 -2.917969 2.480469 -1.808594 3.824219 -0.964844 C 5.167969 -0.117188 6.714844 0.292969 8.4375 0.292969 Z M 8.4375 0.292969 "/></g></g></g><g fill="#5ce1e6" fill-opacity="1"><g transform="translate(100.586914, 227.108873)"><g><path d="M 4.058594 -18.25 C 4.585938 -18.25 5.050781 -18.421875 5.460938 -18.804688 C 5.839844 -19.183594 6.042969 -19.648438 6.042969 -20.203125 C 6.042969 -20.730469 5.839844 -21.199219 5.460938 -21.605469 C 5.050781 -21.984375 4.585938 -22.191406 4.058594 -22.191406 C 3.503906 -22.191406 3.035156 -21.984375 2.65625 -21.605469 C 2.25 -21.199219 2.074219 -20.730469 2.074219 -20.203125 C 2.074219 -19.648438 2.25 -19.183594 2.65625 -18.804688 C 3.035156 -18.421875 3.503906 -18.25 4.058594 -18.25 Z M 2.421875 0 L 5.695312 0 L 5.695312 -14.597656 L 2.421875 -14.597656 Z M 2.421875 0 "/></g></g></g><g fill="#5ce1e6" fill-opacity="1"><g transform="translate(108.731307, 227.108873)"><g><path d="M 17.578125 -14.890625 C 15.765625 -14.890625 14.335938 -14.132812 13.253906 -12.671875 C 12.757812 -13.34375 12.144531 -13.867188 11.417969 -14.277344 C 10.6875 -14.6875 9.925781 -14.890625 9.167969 -14.890625 C 7.765625 -14.890625 6.628906 -14.308594 5.695312 -13.199219 L 5.695312 -14.597656 L 2.453125 -14.597656 L 2.453125 0 L 5.695312 0 L 5.695312 -8.964844 C 5.695312 -9.78125 5.925781 -10.453125 6.453125 -11.007812 C 6.949219 -11.53125 7.589844 -11.824219 8.410156 -11.824219 C 9.167969 -11.824219 9.808594 -11.5625 10.335938 -11.035156 C 10.863281 -10.511719 11.125 -9.839844 11.125 -9.082031 L 11.125 0 L 14.363281 0 L 14.363281 -8.964844 C 14.363281 -9.78125 14.597656 -10.453125 15.125 -11.007812 C 15.621094 -11.53125 16.261719 -11.824219 17.050781 -11.824219 C 17.808594 -11.824219 18.453125 -11.5625 18.976562 -11.035156 C 19.503906 -10.511719 19.765625 -9.839844 19.765625 -9.082031 L 19.765625 0 L 23.007812 0 L 23.007812 -9.253906 C 23.007812 -10.832031 22.480469 -12.144531 21.429688 -13.253906 C 20.378906 -14.335938 19.09375 -14.890625 17.578125 -14.890625 Z M 17.578125 -14.890625 "/></g></g></g><g fill="#5ce1e6" fill-opacity="1"><g transform="translate(133.894264, 227.108873)"><g><path d="M 10.21875 -14.597656 L 6.480469 -14.597656 L 6.480469 -16.90625 C 6.480469 -17.605469 6.65625 -18.160156 7.035156 -18.570312 C 7.386719 -18.976562 7.882812 -19.210938 8.496094 -19.210938 C 9.140625 -19.210938 9.695312 -19.007812 10.160156 -18.65625 L 10.160156 -21.753906 C 9.722656 -22.042969 8.992188 -22.191406 7.972656 -22.191406 C 6.511719 -22.191406 5.371094 -21.753906 4.527344 -20.875 C 3.648438 -20 3.242188 -18.804688 3.242188 -17.3125 L 3.242188 -14.597656 L 0.789062 -14.597656 L 0.789062 -11.796875 L 3.242188 -11.796875 L 3.242188 0 L 6.480469 0 L 6.480469 -11.796875 L 10.21875 -11.796875 Z M 10.21875 -14.597656 "/></g></g></g><g fill="#5ce1e6" fill-opacity="1"><g transform="translate(144.344779, 227.108873)"><g><path d="M 2.453125 0 L 5.695312 0 L 5.695312 -21.898438 L 2.453125 -21.898438 Z M 2.453125 0 "/></g></g></g><g fill="#5ce1e6" fill-opacity="1"><g transform="translate(152.489172, 227.108873)"><g><path d="M 16.640625 -7.417969 C 16.613281 -9.578125 15.882812 -11.386719 14.453125 -12.789062 C 13.023438 -14.191406 11.242188 -14.890625 9.140625 -14.890625 C 6.917969 -14.890625 5.082031 -14.160156 3.621094 -12.699219 C 2.160156 -11.242188 1.429688 -9.429688 1.429688 -7.300781 C 1.429688 -5.140625 2.132812 -3.328125 3.589844 -1.867188 C 5.023438 -0.410156 6.890625 0.292969 9.226562 0.292969 C 10.6875 0.292969 12 -0.0585938 13.199219 -0.789062 C 14.363281 -1.488281 15.269531 -2.480469 15.882812 -3.707031 L 13.109375 -4.816406 C 12.203125 -3.328125 10.890625 -2.597656 9.167969 -2.597656 C 8 -2.597656 6.976562 -2.976562 6.132812 -3.738281 C 5.285156 -4.496094 4.816406 -5.488281 4.699219 -6.714844 L 16.613281 -6.714844 Z M 9.109375 -12.058594 C 10.042969 -12.058594 10.863281 -11.796875 11.5625 -11.300781 C 12.261719 -10.773438 12.757812 -10.074219 13.082031 -9.195312 L 5.023438 -9.195312 C 5.34375 -10.074219 5.867188 -10.746094 6.597656 -11.269531 C 7.300781 -11.796875 8.144531 -12.058594 9.109375 -12.058594 Z M 9.109375 -12.058594 "/></g></g></g><g fill="#5ce1e6" fill-opacity="1"><g transform="translate(170.558635, 227.108873)"><g><path d="M 0.117188 0 L 4.058594 0 L 8.203125 -5.050781 L 12.351562 0 L 16.261719 0 L 10.160156 -7.300781 L 16.261719 -14.597656 L 12.351562 -14.597656 L 8.175781 -9.519531 L 4.027344 -14.597656 L 0.117188 -14.597656 L 6.21875 -7.300781 Z M 0.117188 0 "/></g></g></g><g fill="#5ce1e6" fill-opacity="1"><g transform="translate(186.934992, 227.108873)"><g><path d="M 13.199219 0.292969 C 14.714844 0.292969 16.234375 -0.0273438 17.722656 -0.699219 C 19.183594 -1.34375 20.4375 -2.25 21.460938 -3.359375 L 18.949219 -5.546875 C 17.371094 -3.855469 15.476562 -3.035156 13.199219 -3.035156 C 10.976562 -3.035156 9.082031 -3.796875 7.5625 -5.3125 C 6.042969 -6.832031 5.285156 -8.730469 5.285156 -10.949219 C 5.285156 -13.167969 6.042969 -15.035156 7.5625 -16.554688 C 9.082031 -18.074219 10.976562 -18.863281 13.199219 -18.863281 C 15.503906 -18.863281 17.429688 -18.015625 18.949219 -16.351562 L 21.460938 -18.539062 C 20.4375 -19.648438 19.183594 -20.527344 17.722656 -21.199219 C 16.234375 -21.839844 14.714844 -22.191406 13.199219 -22.191406 C 10.074219 -22.191406 7.417969 -21.082031 5.226562 -18.921875 C 3.035156 -16.730469 1.957031 -14.074219 1.957031 -10.949219 C 1.957031 -7.796875 3.035156 -5.140625 5.226562 -2.976562 C 7.417969 -0.789062 10.074219 0.292969 13.199219 0.292969 Z M 13.199219 0.292969 "/></g></g></g><g fill="#5ce1e6" fill-opacity="1"><g transform="translate(209.383159, 227.108873)"><g><path d="M 2.453125 0 L 5.695312 0 L 5.695312 -21.898438 L 2.453125 -21.898438 Z M 2.453125 0 "/></g></g></g><g fill="#5ce1e6" fill-opacity="1"><g transform="translate(217.527552, 227.108873)"><g><path d="M 9.226562 0.292969 C 11.386719 0.292969 13.226562 -0.4375 14.746094 -1.898438 C 16.261719 -3.359375 17.023438 -5.167969 17.023438 -7.300781 C 17.023438 -9.402344 16.261719 -11.210938 14.746094 -12.671875 C 13.226562 -14.132812 11.386719 -14.890625 9.226562 -14.890625 C 7.035156 -14.890625 5.195312 -14.132812 3.679688 -12.671875 C 2.160156 -11.210938 1.429688 -9.402344 1.429688 -7.300781 C 1.429688 -5.167969 2.160156 -3.359375 3.679688 -1.898438 C 5.195312 -0.4375 7.035156 0.292969 9.226562 0.292969 Z M 9.226562 -2.773438 C 7.941406 -2.773438 6.863281 -3.210938 5.984375 -4.085938 C 5.109375 -4.964844 4.671875 -6.015625 4.671875 -7.300781 C 4.671875 -8.554688 5.109375 -9.636719 5.984375 -10.511719 C 6.863281 -11.386719 7.941406 -11.824219 9.226562 -11.824219 C 10.480469 -11.824219 11.5625 -11.386719 12.4375 -10.511719 C 13.3125 -9.636719 13.753906 -8.554688 13.753906 -7.300781 C 13.753906 -6.015625 13.3125 -4.964844 12.4375 -4.085938 C 11.5625 -3.210938 10.480469 -2.773438 9.226562 -2.773438 Z M 9.226562 -2.773438 "/></g></g></g><g fill="#5ce1e6" fill-opacity="1"><g transform="translate(235.976501, 227.108873)"><g><path d="M 8.058594 0.292969 C 9.898438 0.292969 11.359375 -0.203125 12.4375 -1.226562 C 13.519531 -2.25 14.074219 -3.648438 14.074219 -5.402344 L 14.074219 -14.597656 L 10.804688 -14.597656 L 10.804688 -5.78125 C 10.804688 -4.847656 10.539062 -4.117188 10.042969 -3.589844 C 9.519531 -3.035156 8.875 -2.773438 8.058594 -2.773438 C 7.242188 -2.773438 6.570312 -3.035156 6.042969 -3.589844 C 5.519531 -4.117188 5.285156 -4.847656 5.285156 -5.78125 L 5.285156 -14.597656 L 2.015625 -14.597656 L 2.015625 -5.402344 C 2.015625 -3.648438 2.539062 -2.25 3.621094 -1.226562 C 4.699219 -0.203125 6.191406 0.292969 8.058594 0.292969 Z M 8.058594 0.292969 "/></g></g></g><g fill="#5ce1e6" fill-opacity="1"><g transform="translate(252.060942, 227.108873)"><g><path d="M 13.578125 -21.898438 L 13.578125 -12.875 C 12.351562 -14.21875 10.714844 -14.890625 8.671875 -14.890625 C 6.6875 -14.890625 4.964844 -14.132812 3.5625 -12.671875 C 2.132812 -11.183594 1.429688 -9.402344 1.429688 -7.300781 C 1.429688 -5.195312 2.132812 -3.386719 3.5625 -1.925781 C 4.964844 -0.4375 6.6875 0.292969 8.671875 0.292969 C 10.714844 0.292969 12.351562 -0.378906 13.578125 -1.722656 L 13.578125 0 L 16.816406 0 L 16.816406 -21.898438 Z M 9.226562 -2.773438 C 7.941406 -2.773438 6.863281 -3.210938 5.984375 -4.085938 C 5.109375 -4.964844 4.671875 -6.015625 4.671875 -7.300781 C 4.671875 -8.554688 5.109375 -9.636719 5.984375 -10.511719 C 6.863281 -11.386719 7.941406 -11.824219 9.226562 -11.824219 C 10.480469 -11.824219 11.5625 -11.386719 12.4375 -10.511719 C 13.3125 -9.636719 13.753906 -8.554688 13.753906 -7.300781 C 13.753906 -6.015625 13.3125 -4.964844 12.4375 -4.085938 C 11.5625 -3.210938 10.480469 -2.773438 9.226562 -2.773438 Z M 9.226562 -2.773438 "/></g></g></g></svg>