<svg xmlns="http://www.w3.org/2000/svg" xmlns:xlink="http://www.w3.org/1999/xlink" width="654" zoomAndPan="magnify" viewBox="0 0 490.5 266.250005" height="355" preserveAspectRatio="xMidYMid meet" version="1.0"><defs><g/><clipPath id="d36d303c60"><path d="M 75.425781 80 L 210 80 L 210 186 L 75.425781 186 Z M 75.425781 80 " clip-rule="nonzero"/></clipPath></defs><g clip-path="url(#d36d303c60)"><path fill="#5ce1e6" d="M 140.0625 169.675781 Z M 112.660156 185.144531 L 118.328125 165.710938 L 122.296875 160.429688 L 123.808594 161.183594 L 121.917969 167.410156 L 123.054688 167.976562 L 127.589844 163.070312 L 128.914062 163.824219 L 126.457031 170.617188 L 112.660156 184.957031 Z M 131.9375 173.445312 L 139.875 169.675781 C 142.519531 171.183594 145.734375 172.125 148.945312 172.125 C 153.484375 172.125 157.640625 170.429688 160.855469 167.789062 C 166.144531 172.316406 172.949219 175.144531 180.320312 175.144531 C 196.574219 175.144531 209.804688 161.9375 209.804688 145.714844 C 209.804688 129.679688 196.953125 116.660156 181.078125 116.285156 C 181.453125 114.207031 181.832031 112.132812 181.832031 110.058594 C 181.832031 93.835938 168.601562 80.628906 152.347656 80.628906 C 138.363281 80.628906 126.644531 90.25 123.621094 103.265625 C 120.40625 100.4375 116.058594 98.550781 111.335938 98.550781 C 101.128906 98.550781 92.8125 106.851562 92.8125 117.039062 C 92.8125 117.980469 92.8125 118.738281 93.003906 119.679688 C 82.605469 122.699219 75.046875 132.132812 75.046875 143.449219 C 75.046875 157.035156 86.199219 168.164062 99.804688 168.164062 L 115.304688 168.164062 L 112.46875 185.144531 L 128.15625 171.9375 L 129.480469 168.164062 L 129.855469 168.164062 Z M 125.699219 139.675781 C 131.179688 126.847656 138.363281 115.53125 154.238281 112.324219 C 158.773438 127.039062 154.050781 139.488281 144.410156 150.808594 C 145.734375 153.449219 146.867188 156.28125 146.488281 158.921875 C 145.921875 162.503906 143.277344 164.203125 140.628906 166.46875 L 138.171875 168.542969 L 131.9375 173.636719 L 131.9375 161.183594 L 128.914062 163.070312 L 123.242188 159.675781 L 123.242188 155.902344 L 112.089844 162.503906 L 114.171875 149.300781 C 114.738281 145.714844 114.925781 143.828125 118.328125 141.753906 C 120.785156 140.242188 123.429688 140.054688 126.078125 139.867188 Z M 125.699219 139.675781 " fill-opacity="1" fill-rule="evenodd"/></g><path fill="#d9d9d9" d="M 152.726562 115.53125 L 150.648438 118.925781 C 153.105469 127.226562 150.269531 136.847656 143.84375 147.414062 C 151.59375 137.792969 155.5625 127.605469 152.539062 115.339844 Z M 152.726562 115.53125 " fill-opacity="1" fill-rule="evenodd"/><g fill="#5ce1e6" fill-opacity="1"><g transform="translate(219.075173, 146.28238)"><g><path d="M 8.421875 0.292969 C 10.40625 0.292969 12.09375 -0.261719 13.4375 -1.398438 C 14.777344 -2.507812 15.445312 -4.023438 15.445312 -5.945312 C 15.445312 -6.996094 15.242188 -7.898438 14.863281 -8.683594 C 14.484375 -9.472656 13.988281 -10.113281 13.378906 -10.578125 C 12.765625 -11.046875 12.09375 -11.453125 11.367188 -11.804688 C 10.609375 -12.152344 9.878906 -12.472656 9.152344 -12.765625 C 8.394531 -13.027344 7.722656 -13.320312 7.113281 -13.609375 C 6.5 -13.902344 6.003906 -14.28125 5.625 -14.746094 C 5.246094 -15.214844 5.070312 -15.738281 5.070312 -16.378906 C 5.070312 -17.226562 5.363281 -17.867188 5.945312 -18.332031 C 6.527344 -18.796875 7.285156 -19.03125 8.191406 -19.03125 C 9.707031 -19.03125 10.988281 -18.390625 11.980469 -17.109375 L 14.339844 -19.265625 C 13.640625 -20.140625 12.738281 -20.839844 11.65625 -21.363281 C 10.578125 -21.886719 9.414062 -22.148438 8.191406 -22.148438 C 6.382812 -22.148438 4.839844 -21.597656 3.613281 -20.519531 C 2.359375 -19.410156 1.75 -17.953125 1.75 -16.117188 C 1.75 -15.125 1.921875 -14.28125 2.300781 -13.550781 C 2.679688 -12.792969 3.175781 -12.210938 3.789062 -11.773438 C 4.402344 -11.335938 5.070312 -10.957031 5.828125 -10.609375 C 6.558594 -10.257812 7.285156 -9.96875 8.042969 -9.675781 C 8.773438 -9.382812 9.441406 -9.09375 10.054688 -8.800781 C 10.667969 -8.480469 11.164062 -8.074219 11.542969 -7.605469 C 11.921875 -7.113281 12.125 -6.558594 12.125 -5.917969 C 12.125 -4.984375 11.773438 -4.226562 11.105469 -3.703125 C 10.40625 -3.175781 9.53125 -2.914062 8.453125 -2.914062 C 7.34375 -2.914062 6.355469 -3.175781 5.539062 -3.757812 C 4.722656 -4.3125 4.109375 -5.070312 3.703125 -6.0625 L 0.84375 -4.3125 C 1.488281 -2.914062 2.476562 -1.808594 3.816406 -0.960938 C 5.160156 -0.117188 6.703125 0.292969 8.421875 0.292969 Z M 8.421875 0.292969 "/></g></g></g><g fill="#5ce1e6" fill-opacity="1"><g transform="translate(235.451318, 146.28238)"><g><path d="M 4.050781 -18.214844 C 4.574219 -18.214844 5.042969 -18.390625 5.449219 -18.769531 C 5.828125 -19.148438 6.03125 -19.613281 6.03125 -20.167969 C 6.03125 -20.691406 5.828125 -21.160156 5.449219 -21.566406 C 5.042969 -21.945312 4.574219 -22.148438 4.050781 -22.148438 C 3.496094 -22.148438 3.03125 -21.945312 2.652344 -21.566406 C 2.246094 -21.160156 2.070312 -20.691406 2.070312 -20.167969 C 2.070312 -19.613281 2.246094 -19.148438 2.652344 -18.769531 C 3.03125 -18.390625 3.496094 -18.214844 4.050781 -18.214844 Z M 2.417969 0 L 5.683594 0 L 5.683594 -14.574219 L 2.417969 -14.574219 Z M 2.417969 0 "/></g></g></g><g fill="#5ce1e6" fill-opacity="1"><g transform="translate(243.581113, 146.28238)"><g><path d="M 17.546875 -14.863281 C 15.738281 -14.863281 14.308594 -14.105469 13.230469 -12.648438 C 12.738281 -13.320312 12.125 -13.84375 11.394531 -14.253906 C 10.667969 -14.660156 9.910156 -14.863281 9.152344 -14.863281 C 7.753906 -14.863281 6.617188 -14.28125 5.683594 -13.171875 L 5.683594 -14.574219 L 2.449219 -14.574219 L 2.449219 0 L 5.683594 0 L 5.683594 -8.949219 C 5.683594 -9.761719 5.917969 -10.433594 6.441406 -10.988281 C 6.9375 -11.511719 7.578125 -11.804688 8.394531 -11.804688 C 9.152344 -11.804688 9.792969 -11.542969 10.316406 -11.015625 C 10.84375 -10.492188 11.105469 -9.820312 11.105469 -9.0625 L 11.105469 0 L 14.339844 0 L 14.339844 -8.949219 C 14.339844 -9.761719 14.574219 -10.433594 15.097656 -10.988281 C 15.59375 -11.511719 16.234375 -11.804688 17.019531 -11.804688 C 17.777344 -11.804688 18.417969 -11.542969 18.945312 -11.015625 C 19.46875 -10.492188 19.730469 -9.820312 19.730469 -9.0625 L 19.730469 0 L 22.964844 0 L 22.964844 -9.238281 C 22.964844 -10.8125 22.441406 -12.125 21.390625 -13.230469 C 20.34375 -14.308594 19.0625 -14.863281 17.546875 -14.863281 Z M 17.546875 -14.863281 "/></g></g></g><g fill="#5ce1e6" fill-opacity="1"><g transform="translate(268.698968, 146.28238)"><g><path d="M 10.199219 -14.574219 L 6.46875 -14.574219 L 6.46875 -16.875 C 6.46875 -17.574219 6.644531 -18.128906 7.023438 -18.535156 C 7.375 -18.945312 7.871094 -19.175781 8.480469 -19.175781 C 9.121094 -19.175781 9.675781 -18.972656 10.140625 -18.625 L 10.140625 -21.714844 C 9.707031 -22.003906 8.976562 -22.148438 7.957031 -22.148438 C 6.5 -22.148438 5.363281 -21.714844 4.515625 -20.839844 C 3.644531 -19.964844 3.234375 -18.769531 3.234375 -17.28125 L 3.234375 -14.574219 L 0.785156 -14.574219 L 0.785156 -11.773438 L 3.234375 -11.773438 L 3.234375 0 L 6.46875 0 L 6.46875 -11.773438 L 10.199219 -11.773438 Z M 10.199219 -14.574219 "/></g></g></g><g fill="#5ce1e6" fill-opacity="1"><g transform="translate(279.130751, 146.28238)"><g><path d="M 2.449219 0 L 5.683594 0 L 5.683594 -21.859375 L 2.449219 -21.859375 Z M 2.449219 0 "/></g></g></g><g fill="#5ce1e6" fill-opacity="1"><g transform="translate(287.260546, 146.28238)"><g><path d="M 16.613281 -7.402344 C 16.582031 -9.558594 15.855469 -11.367188 14.425781 -12.765625 C 13 -14.164062 11.222656 -14.863281 9.121094 -14.863281 C 6.90625 -14.863281 5.070312 -14.136719 3.613281 -12.679688 C 2.15625 -11.222656 1.429688 -9.414062 1.429688 -7.285156 C 1.429688 -5.128906 2.128906 -3.324219 3.585938 -1.867188 C 5.011719 -0.40625 6.878906 0.292969 9.210938 0.292969 C 10.667969 0.292969 11.980469 -0.0585938 13.171875 -0.785156 C 14.339844 -1.488281 15.242188 -2.476562 15.855469 -3.703125 L 13.085938 -4.808594 C 12.183594 -3.324219 10.871094 -2.59375 9.152344 -2.59375 C 7.984375 -2.59375 6.964844 -2.972656 6.121094 -3.730469 C 5.273438 -4.488281 4.808594 -5.480469 4.691406 -6.703125 L 16.582031 -6.703125 Z M 9.09375 -12.035156 C 10.027344 -12.035156 10.84375 -11.773438 11.542969 -11.277344 C 12.242188 -10.753906 12.738281 -10.054688 13.058594 -9.179688 L 5.011719 -9.179688 C 5.332031 -10.054688 5.859375 -10.726562 6.585938 -11.25 C 7.285156 -11.773438 8.132812 -12.035156 9.09375 -12.035156 Z M 9.09375 -12.035156 "/></g></g></g><g fill="#5ce1e6" fill-opacity="1"><g transform="translate(305.297622, 146.28238)"><g><path d="M 0.117188 0 L 4.050781 0 L 8.191406 -5.042969 L 12.328125 0 L 16.234375 0 L 10.140625 -7.285156 L 16.234375 -14.574219 L 12.328125 -14.574219 L 8.160156 -9.5 L 4.023438 -14.574219 L 0.117188 -14.574219 L 6.207031 -7.285156 Z M 0.117188 0 "/></g></g></g><g fill="#5ce1e6" fill-opacity="1"><g transform="translate(321.644625, 146.28238)"><g><path d="M 13.171875 0.292969 C 14.6875 0.292969 16.203125 -0.0273438 17.691406 -0.699219 C 19.148438 -1.339844 20.402344 -2.246094 21.421875 -3.351562 L 18.914062 -5.539062 C 17.339844 -3.847656 15.445312 -3.03125 13.171875 -3.03125 C 10.957031 -3.03125 9.0625 -3.789062 7.546875 -5.304688 C 6.03125 -6.820312 5.273438 -8.714844 5.273438 -10.929688 C 5.273438 -13.144531 6.03125 -15.007812 7.546875 -16.523438 C 9.0625 -18.039062 10.957031 -18.828125 13.171875 -18.828125 C 15.476562 -18.828125 17.398438 -17.984375 18.914062 -16.320312 L 21.421875 -18.507812 C 20.402344 -19.613281 19.148438 -20.488281 17.691406 -21.160156 C 16.203125 -21.800781 14.6875 -22.148438 13.171875 -22.148438 C 10.054688 -22.148438 7.402344 -21.042969 5.21875 -18.886719 C 3.03125 -16.699219 1.953125 -14.046875 1.953125 -10.929688 C 1.953125 -7.78125 3.03125 -5.128906 5.21875 -2.972656 C 7.402344 -0.785156 10.054688 0.292969 13.171875 0.292969 Z M 13.171875 0.292969 "/></g></g></g><g fill="#5ce1e6" fill-opacity="1"><g transform="translate(344.052556, 146.28238)"><g><path d="M 2.449219 0 L 5.683594 0 L 5.683594 -21.859375 L 2.449219 -21.859375 Z M 2.449219 0 "/></g></g></g><g fill="#5ce1e6" fill-opacity="1"><g transform="translate(352.182351, 146.28238)"><g><path d="M 9.210938 0.292969 C 11.367188 0.292969 13.203125 -0.4375 14.71875 -1.894531 C 16.234375 -3.351562 16.992188 -5.160156 16.992188 -7.285156 C 16.992188 -9.382812 16.234375 -11.191406 14.71875 -12.648438 C 13.203125 -14.105469 11.367188 -14.863281 9.210938 -14.863281 C 7.023438 -14.863281 5.1875 -14.105469 3.671875 -12.648438 C 2.15625 -11.191406 1.429688 -9.382812 1.429688 -7.285156 C 1.429688 -5.160156 2.15625 -3.351562 3.671875 -1.894531 C 5.1875 -0.4375 7.023438 0.292969 9.210938 0.292969 Z M 9.210938 -2.769531 C 7.925781 -2.769531 6.847656 -3.207031 5.976562 -4.082031 C 5.101562 -4.953125 4.664062 -6.003906 4.664062 -7.285156 C 4.664062 -8.539062 5.101562 -9.617188 5.976562 -10.492188 C 6.847656 -11.367188 7.925781 -11.804688 9.210938 -11.804688 C 10.464844 -11.804688 11.542969 -11.367188 12.414062 -10.492188 C 13.289062 -9.617188 13.726562 -8.539062 13.726562 -7.285156 C 13.726562 -6.003906 13.289062 -4.953125 12.414062 -4.082031 C 11.542969 -3.207031 10.464844 -2.769531 9.210938 -2.769531 Z M 9.210938 -2.769531 "/></g></g></g><g fill="#5ce1e6" fill-opacity="1"><g transform="translate(370.598232, 146.28238)"><g><path d="M 8.042969 0.292969 C 9.878906 0.292969 11.335938 -0.203125 12.414062 -1.222656 C 13.496094 -2.246094 14.046875 -3.644531 14.046875 -5.390625 L 14.046875 -14.574219 L 10.785156 -14.574219 L 10.785156 -5.769531 C 10.785156 -4.839844 10.519531 -4.109375 10.027344 -3.585938 C 9.5 -3.03125 8.859375 -2.769531 8.042969 -2.769531 C 7.226562 -2.769531 6.558594 -3.03125 6.03125 -3.585938 C 5.507812 -4.109375 5.273438 -4.839844 5.273438 -5.769531 L 5.273438 -14.574219 L 2.011719 -14.574219 L 2.011719 -5.390625 C 2.011719 -3.644531 2.535156 -2.246094 3.613281 -1.222656 C 4.691406 -0.203125 6.179688 0.292969 8.042969 0.292969 Z M 8.042969 0.292969 "/></g></g></g><g fill="#5ce1e6" fill-opacity="1"><g transform="translate(386.653843, 146.28238)"><g><path d="M 13.550781 -21.859375 L 13.550781 -12.851562 C 12.328125 -14.195312 10.695312 -14.863281 8.65625 -14.863281 C 6.675781 -14.863281 4.953125 -14.105469 3.554688 -12.648438 C 2.128906 -11.164062 1.429688 -9.382812 1.429688 -7.285156 C 1.429688 -5.1875 2.128906 -3.378906 3.554688 -1.921875 C 4.953125 -0.4375 6.675781 0.292969 8.65625 0.292969 C 10.695312 0.292969 12.328125 -0.378906 13.550781 -1.71875 L 13.550781 0 L 16.789062 0 L 16.789062 -21.859375 Z M 9.210938 -2.769531 C 7.925781 -2.769531 6.847656 -3.207031 5.976562 -4.082031 C 5.101562 -4.953125 4.664062 -6.003906 4.664062 -7.285156 C 4.664062 -8.539062 5.101562 -9.617188 5.976562 -10.492188 C 6.847656 -11.367188 7.925781 -11.804688 9.210938 -11.804688 C 10.464844 -11.804688 11.542969 -11.367188 12.414062 -10.492188 C 13.289062 -9.617188 13.726562 -8.539062 13.726562 -7.285156 C 13.726562 -6.003906 13.289062 -4.953125 12.414062 -4.082031 C 11.542969 -3.207031 10.464844 -2.769531 9.210938 -2.769531 Z M 9.210938 -2.769531 "/></g></g></g></svg>